# xmcd
#
# Track frame offsets: 
#        150
#        10264
#        18642
#        44122
#        56056
#        74351
#        101704
#        126132
#        137526
#        165892
#        195334
#        228143
#        260552
#
# Disc length: 3973 seconds
#
# Revision: 0
# Processed by: cddbd v1.5.2PL0 Copyright (c) Steve Scherf et al.
# Submitted via: ExactAudioCopy v1.0b3
#
DISCID=ae0f830d
DTITLE=Joe Bonamassa - Tour De Force - Royal Albert Hall Disc 1
DYEAR=2014
DGENRE=Blues
TTITLE0=Albion (Intro)
TTITLE1=Palm Trees, Helicopters and Gasoline
TTITLE2=Seagull
TTITLE3=Jelly Roll
TTITLE4=Black Lung Heartache
TTITLE5=Around the Bend
TTITLE6=Jockey Full of Bourbon
TTITLE7=From the Valley
TTITLE8=Athens to Athens
TTITLE9=Slow Train
TTITLE10=Last Kiss
TTITLE11=Dust Bowl
TTITLE12=Midnight Blues
EXTD=
EXTT0=
EXTT1=
EXTT2=
EXTT3=
EXTT4=
EXTT5=
EXTT6=
EXTT7=
EXTT8=
EXTT9=
EXTT10=
EXTT11=
EXTT12=
PLAYORDER=
